<!-- Created with WebVOWL (version 1.1.7), http://vowl.visualdataweb.org -->
<svg class="vowlGraph" width="1497.6" height="840" version="1.1" xmlns="http://www.w3.org/2000/svg"><g transform="translate(-1128.24,-645.66)scale(2.52)" style="opacity: 1;"><g class="linkContainer"><defs></defs><defs><marker id="marker167" viewBox="-14 -10 28 20" markerWidth="10" markerHeight="10" orient="auto"><path d="M0,0L -12,8L-12,-8L0,0" class="filled values-from" style="stroke: rgb(102, 153, 204); stroke-width: 2; stroke-dasharray: 100;"></path></marker><marker id="marker168" viewBox="-14 -10 28 20" markerWidth="10" markerHeight="10" orient="auto"><path d="M0,0L -12,8L-12,-8L0,0" class="filled values-from" style="stroke: rgb(102, 153, 204); stroke-width: 2; stroke-dasharray: 100;"></path></marker></defs><g class="link" marker-end="url(#marker167)"><path class="link-path node16 node72 values-from" d="M717.2530240193387,503.74423781000723Q826.072122794936,523.5336729641871,837.6597167725886,512.3296012785723Q849.2473107502411,501.12552959295766,833.1289637958641,391.7035209538603" style="fill: none; stroke: rgb(102, 153, 204); stroke-width: 2;"></path></g><g class="link" marker-end="url(#marker168)"><path class="link-path node16 node72 values-from" d="M664.4691823008153,449.1528822170335Q648.3539441881996,339.73253726877425,659.9414121561022,328.528510450873Q671.5288801240047,317.32448363297175,780.3438619798399,337.11261403802087" style="fill: none; stroke: rgb(102, 153, 204); stroke-width: 2;"></path></g></g><g class="cardinalityContainer"><g class="cardinality" text-anchor="middle" transform="translate(843.8350603915734,410.31479430318655)" style="font-size: 10px;"><path class="cardinality" d="m -8.8832678,-11.303355 -7.97e-4,0 0.717374,1.833297 8.22987151,21.371761 8.66826659,-21.2123526 0.797082,-1.9927054 0.02471,0 -0.8218553,1.9927054 -2.2517565,5.4201577 -12.4444429,8e-6 -2.2019394,-5.5795821 z" transform="matrix(0.5,0,0,0.5,0.5,0.5)" style="fill: none; font-size: 10px; stroke: rgb(0, 0, 0); stroke-width: 2;"></path></g><g class="cardinality" text-anchor="middle" transform="translate(760.6808212488264,345.7361185002745)" style="font-size: 10px;"><path class="cardinality" d="m -8.8832678,-11.303355 -7.97e-4,0 0.717374,1.833297 8.22987151,21.371761 8.66826659,-21.2123526 0.797082,-1.9927054 0.02471,0 -0.8218553,1.9927054 -2.2517565,5.4201577 -12.4444429,8e-6 -2.2019394,-5.5795821 z" transform="matrix(0.5,0,0,0.5,0.5,0.5)" style="fill: none; font-size: 10px; stroke: rgb(0, 0, 0); stroke-width: 2;"></path></g></g><g class="labelContainer"><g class="labelGroup" transform="translate(837.6597167725886,512.3296012785723)"><g class="label" id="167"><rect class="allvaluesfromproperty property datatype" x="-40.5" y="-14" width="81" height="28" style="fill: rgb(51, 102, 204);"><title>textContent</title></rect><text class="text" text-anchor="middle" style="fill: rgb(255, 255, 255); font-family: Helvetica, Arial, sans-serif; font-size: 12px; pointer-events: none;" y="-6.5546875px"><tspan class="text" x="0" dy="12px" style="font-family: Helvetica, Arial, sans-serif; font-size: 12px; pointer-events: none;">textContent</tspan></text></g></g><g class="labelGroup" transform="translate(659.9414121561022,328.528510450873)"><g class="label" id="168"><rect class="allvaluesfromproperty property object" x="-40.5" y="-14" width="81" height="28" style="fill: rgb(51, 102, 204);"><title>textContent</title></rect><text class="text" text-anchor="middle" style="fill: rgb(255, 255, 255); font-family: Helvetica, Arial, sans-serif; font-size: 12px; pointer-events: none;" y="-6.5546875px"><tspan class="text" x="0" dy="12px" style="font-family: Helvetica, Arial, sans-serif; font-size: 12px; pointer-events: none;">textContent</tspan></text></g></g></g><g class="nodeContainer"><g class="node" id="72" transform="translate(831.2147377804935,340.7394577449473)"><circle class="class" r="50" style="fill: rgb(51, 102, 204); stroke: rgb(0, 0, 0); stroke-width: 2;"><title>string</title></circle><text class="text" text-anchor="middle" style="fill: rgb(255, 255, 255); font-family: Helvetica, Arial, sans-serif; font-size: 12px; pointer-events: none;" y="-11.359375px"><tspan class="text" x="0" dy="12px" style="font-family: Helvetica, Arial, sans-serif; font-size: 12px; pointer-events: none;">string</tspan><tspan class="text subtext" x="0" dy="10px" style="font-family: Helvetica, Arial, sans-serif; font-size: 9px; pointer-events: none;">(external)</tspan></text></g><g class="node" id="16" transform="translate(666.3821769122899,500.1169916629609)"><circle class="class" r="50" style="fill: rgb(51, 102, 204); stroke: rgb(0, 0, 0); stroke-width: 2;"><title>anyType</title></circle><text class="text" text-anchor="middle" style="fill: rgb(255, 255, 255); font-family: Helvetica, Arial, sans-serif; font-size: 12px; pointer-events: none;" y="-11.359375px"><tspan class="text" x="0" dy="12px" style="font-family: Helvetica, Arial, sans-serif; font-size: 12px; pointer-events: none;">anyType</tspan><tspan class="text subtext" x="0" dy="10px" style="font-family: Helvetica, Arial, sans-serif; font-size: 9px; pointer-events: none;">(external)</tspan></text></g></g><g class="linkContainer hidden-in-export" style="display: none;"><g><line class="classNodeDragPath hidden" x1="0" y1="0" x2="0" y2="0" style="stroke: rgb(0, 0, 0); stroke-width: 2;"></line></g><g><line class="classNodeDragPath hidden" x1="0" y1="0" x2="0" y2="0" style="stroke: rgb(0, 0, 0); stroke-width: 2;"></line></g><g><line class="classNodeDragPath hidden" x1="0" y1="0" x2="0" y2="0" style="stroke: rgb(0, 0, 0); stroke-width: 2;"></line></g><g><line x1="0" y1="0" x2="0" y2="0" class="hidden" style="stroke: rgb(0, 0, 0); stroke-width: 2;"></line></g></g><g class="editContainer hidden-in-export" style="display: none;"><g class="node hidden-in-export" id="10001" style="display: none;"><g><path d="M 20,40 C 0,15 0,-15 20,-40 L -40,0 Z" class="classDraggerNode hidden" style="fill: none; stroke: rgb(0, 0, 0); stroke-width: 2;"></path><circle r="40" cx="0" cy="0" class="superHiddenElement superOpacityElement hidden"></circle></g></g><g class="node hidden-in-export" id="10002" style="display: none;"><g><path d="M 61,40 C 41,15 41,-15 61,-40 L 1,0 Z" class="classDraggerNode hidden" style="fill: none; stroke: rgb(0, 0, 0); stroke-width: 2;"></path><circle r="40" cx="0" cy="0" class="superHiddenElement superOpacityElement hidden"></circle></g></g><g class="node hidden-in-export" id="10002" style="display: none;"><g><path d="M 10,40 C -10,15 -10,-15 10,-40 -8.8233455,-13.641384 -36.711107,-5.1228436 -50,0 -36.696429,4.9079017 -8.6403157,13.745728 10,40 Z" class="classDraggerNode hidden" style="fill: none; stroke: rgb(0, 0, 0); stroke-width: 2;"></path><circle r="40" cx="0" cy="0" class="superHiddenElement superOpacityElement hidden"></circle></g></g><g class="node hidden-in-export" id="10003" style="display: none;"><g class="hidden"></g></g></g><g class="editContainer hidden-in-export" style="display: none;"><g class="hidden-in-export hidden addDataPropertyElement" transform="translate(0,0)" style="display: none;"><circle r="12" cx="0" cy="0"><title>Add Datatype Property</title></circle><line x1="-8" y1="0" x2="8" y2="0" style="stroke: rgb(0, 0, 0); stroke-width: 2;"><title>Add Datatype Property</title></line><line x1="0" y1="-8" x2="0" y2="8" style="stroke: rgb(0, 0, 0); stroke-width: 2;"><title>Add Datatype Property</title></line><circle r="15" cx="-7" cy="7" class="superHiddenElement superOpacityElement"></circle></g><g class="hidden-in-export hidden deleteParentElement" transform="translate(0,0)" style="display: none;"><circle r="12" cx="0" cy="0"><title>Delete This Node</title></circle><line x1="-5" y1="-5" x2="5" y2="5" style="stroke: rgb(0, 0, 0); stroke-width: 2;"><title>Delete This Node</title></line><line x1="5" y1="-5" x2="-5" y2="5" style="stroke: rgb(0, 0, 0); stroke-width: 2;"><title>Delete This Node</title></line><circle r="15" cx="7" cy="-7" class="superHiddenElement superOpacityElement"></circle></g></g></g></svg>